<svg xmlns="http://www.w3.org/2000/svg" width="65" height="65" viewBox="0 0 65 65">
  <g id="Group_1" data-name="Group 1" transform="translate(-928 -826)">
    <rect id="Rectangle_4" data-name="Rectangle 4" width="65" height="65" rx="32.5" transform="translate(928 826)" fill="#ff5050"/>
    <g id="arrow-left" transform="translate(942.877 876.5) rotate(-90)">
      <path id="Path_1" data-name="Path 1" d="M13.171,10.454a1.125,1.125,0,0,1,0,1.593L7.216,18l5.956,5.954a1.126,1.126,0,0,1-1.593,1.593L4.829,18.8a1.125,1.125,0,0,1,0-1.593l6.75-6.75a1.125,1.125,0,0,1,1.593,0Z" fill="#fff" fill-rule="evenodd"/>
      <path id="Path_2" data-name="Path 2" d="M5.625,18A1.125,1.125,0,0,1,6.75,16.875H30.375a1.125,1.125,0,0,1,0,2.25H6.75A1.125,1.125,0,0,1,5.625,18Z" fill="#fff" fill-rule="evenodd"/>
    </g>
  </g>
</svg>
