<svg xmlns="http://www.w3.org/2000/svg" width="117" height="117" viewBox="0 0 117 117">
  <g id="Icon" transform="translate(-346.457 -4334.457)">
    <path id="Rectangle_15" data-name="Rectangle 15" d="M30,0H87a30,30,0,0,1,30,30v87a0,0,0,0,1,0,0H0a0,0,0,0,1,0,0V30A30,30,0,0,1,30,0Z" transform="translate(346.457 4334.457)" fill="#ff5050"/>
    <path id="Rectangle_17" data-name="Rectangle 17" d="M7,0H61a7,7,0,0,1,7,7V9a0,0,0,0,1,0,0H0A0,0,0,0,1,0,9V7A7,7,0,0,1,7,0Z" transform="translate(370.457 4442.457)" fill="#fff"/>
    <path id="telephone" d="M35.677,29.3a1.466,1.466,0,0,0-.772-1.055l-6.2-3.656-.05-.029a1.842,1.842,0,0,0-.838-.195,1.929,1.929,0,0,0-1.361.542l-1.831,1.832a1.069,1.069,0,0,1-.411.186c-.022,0-2.13-.154-6.014-4.037S14.155,16.9,14.154,16.9a.976.976,0,0,1,.184-.441L15.9,14.9a1.99,1.99,0,0,0,.388-2.173L12.839,6.238A1.424,1.424,0,0,0,11.561,5.4a1.469,1.469,0,0,0-1.039.446L6.266,10.1a3.268,3.268,0,0,0-.837,1.687c-.037.273-.792,6.791,8.144,15.73,7.588,7.585,13.5,8.174,15.137,8.174a4.63,4.63,0,0,0,.6-.031,3.26,3.26,0,0,0,1.684-.833l4.253-4.252a1.465,1.465,0,0,0,.433-1.268Z" transform="translate(383.875 4371.87)" fill="#f8f8f8"/>
  </g>
</svg>
