<svg xmlns="http://www.w3.org/2000/svg" width="117" height="117" viewBox="0 0 117 117">
  <g id="Icon" transform="translate(-346.457 -4334.457)">
    <path id="Rectangle_15" data-name="Rectangle 15" d="M30,0H87a30,30,0,0,1,30,30v87a0,0,0,0,1,0,0H0a0,0,0,0,1,0,0V30A30,30,0,0,1,30,0Z" transform="translate(346.457 4334.457)" fill="#ff5050"/>
    <path id="Rectangle_17" data-name="Rectangle 17" d="M7,0H61a7,7,0,0,1,7,7V9a0,0,0,0,1,0,0H0A0,0,0,0,1,0,9V7A7,7,0,0,1,7,0Z" transform="translate(370.457 4442.457)" fill="#fff"/>
    <g id="location" transform="translate(383.832 4371.207)">
      <path id="Path_5" data-name="Path 5" d="M18,20.25a5.625,5.625,0,1,1,5.625-5.625A5.625,5.625,0,0,1,18,20.25Zm0-9a3.375,3.375,0,1,0,3.375,3.375A3.375,3.375,0,0,0,18,11.25Z" transform="translate(2.625 2.227)" fill="#f8f8f8"/>
      <path id="Path_6" data-name="Path 6" d="M20.625,40.432,9.121,26.865q-.239-.305-.474-.615a14.848,14.848,0,0,1-3.022-9,15,15,0,1,1,30,0,14.842,14.842,0,0,1-3.021,9v0s-.408.537-.47.61Zm-9.8-15.825s.319.419.392.51l9.411,11.1L30.048,25.1c.059-.075.379-.5.381-.5A12.138,12.138,0,0,0,32.9,17.25a12.273,12.273,0,1,0-24.545,0,12.143,12.143,0,0,0,2.473,7.356Z" transform="translate(0)" fill="#f8f8f8"/>
    </g>
  </g>
</svg>
